<?xml version="1.0" encoding="UTF-8" standalone="no"?>
<svg
   xmlns:dc="http://purl.org/dc/elements/1.1/"
   xmlns:cc="http://creativecommons.org/ns#"
   xmlns:rdf="http://www.w3.org/1999/02/22-rdf-syntax-ns#"
   xmlns:svg="http://www.w3.org/2000/svg"
   xmlns="http://www.w3.org/2000/svg"
   version="1.1"
   id="svg3464"
   viewBox="0 0 443.36016 228.09247"
   height="64.372765mm"
   width="125.12609mm">
  <defs
     id="defs3466" />
  <metadata
     id="metadata3469">
    <rdf:RDF>
      <cc:Work
         rdf:about="">
        <dc:format>image/svg+xml</dc:format>
        <dc:type
           rdf:resource="http://purl.org/dc/dcmitype/StillImage" />
        <dc:title></dc:title>
      </cc:Work>
    </rdf:RDF>
  </metadata>
  <g
     transform="translate(364.53723,-198.31597)"
     id="layer1">
    <path
       id="path4240"
       d="m -251.32726,301.15286 c -5.52642,5.50007 -11.22579,10.81757 -16.91239,16.1501 13.03248,8.83329 20.84729,23.59631 20.85352,39.39453 1.7e-4,26.25494 -21.17711,47.53891 -47.30078,47.53906 -26.12366,-1.5e-4 -47.30095,-21.28412 -47.30078,-47.53906 0.0234,-15.40561 7.47333,-29.84467 19.98829,-38.74023 l -16.48047,-16.63477 c -16.41227,13.35572 -25.95592,33.43826 -25.97657,54.66211 -7.1e-4,38.89375 31.37103,70.42377 70.07031,70.42383 38.69929,-6e-5 70.07102,-31.53008 70.07031,-70.42383 -0.0351,-22.75512 -8.56062,-41.64333 -27.01144,-54.83174 z"
       style="opacity:1;fill:#4c2005;fill-opacity:1;fill-rule:nonzero;stroke:none;stroke-width:3;stroke-linecap:round;stroke-linejoin:round;stroke-miterlimit:4;stroke-dasharray:none;stroke-opacity:1" />
    <path
       id="path4287"
       d="m -363.68675,262.93927 c 31.7893,26.49888 42.44698,37.84583 65.0843,84.58082 l 8.44577,-0.70915 c 0.22646,-20.37132 16.08335,-42.09843 46.8039,-62.6465 31.60402,-23.05195 59.71884,-22.28387 95.79928,-39.45632 18.51723,-10.781 26.888,-26.04316 41.53055,-42.73823 l -4.0085,-3.65392 c 0,0 -3.08781,5.73349 -28.68629,22.32471 -23.49061,15.22504 -77.46344,28.95873 -102.85231,44.12555 -21.19486,10.56338 -31.22193,16.75862 -42.33004,30.01856 -2.49508,2.97842 -10.31009,11.28439 -13.51077,23.34472 -51.26729,-51.47894 -71.71102,-59.72085 -66.27589,-55.19024 z"
       style="fill:#8aaf98;fill-opacity:1;fill-rule:evenodd;stroke:none;stroke-width:1px;stroke-linecap:butt;stroke-linejoin:miter;stroke-opacity:1" />
    <g
       transform="matrix(1.1297209,0,0,1.1297209,-419.36118,-126.45337)"
       id="g4147">
      <g
         id="text4307"
         style="font-style:normal;font-variant:normal;font-weight:bold;font-stretch:normal;font-size:80px;line-height:125%;font-family:'Liberation Sans';-inkscape-font-specification:'Liberation Sans, Bold';text-align:start;letter-spacing:0px;word-spacing:0px;writing-mode:lr-tb;text-anchor:start;fill:#4c2005;fill-opacity:1;stroke:none;stroke-width:1px;stroke-linecap:butt;stroke-linejoin:miter;stroke-opacity:1">
        <path
           id="path3363"
           d="m 216.96875,450.51645 0,-23.71094 q 0,-2.46094 -0.39063,-4.49219 -0.39062,-2.07031 -1.28906,-3.51562 -0.89844,-1.48438 -2.34375,-2.30469 -1.44531,-0.82031 -3.51562,-0.82031 -1.99219,0 -3.63282,0.89844 -1.60156,0.85937 -2.77343,2.5 -1.17188,1.60156 -1.83594,3.86718 -0.625,2.22657 -0.625,4.92188 l 0,22.65625 -10.97656,0 0,-32.8125 q 0,-1.36719 -0.0391,-2.8125 0,-1.44531 -0.0781,-2.73438 -0.0391,-1.32812 -0.0781,-2.34375 -0.0391,-1.05468 -0.11718,-1.5625 l 10.46875,0 q 0.0781,0.46875 0.15625,1.52344 0.0781,1.01563 0.15625,2.26563 0.0781,1.25 0.11718,2.5 0.0781,1.25 0.0781,2.10937 l 0.15625,0 q 2.22656,-4.84375 5.58594,-7.03125 3.35937,-2.1875 8.00781,-2.1875 3.82812,0 6.44531,1.25 2.65625,1.25 4.29688,3.4375 1.67968,2.1875 2.42187,5.15625 0.74219,2.96875 0.74219,6.40625 l 0,26.83594 -10.9375,0 z" />
        <path
           id="path3365"
           d="m 248.84375,408.25082 0,23.71094 q 0,2.46094 0.39062,4.53125 0.39063,2.03125 1.28907,3.51563 0.89843,1.44531 2.30468,2.26562 1.44532,0.82031 3.51563,0.82031 1.99219,0 3.59375,-0.85937 1.64062,-0.89844 2.8125,-2.5 1.17187,-1.64063 1.79687,-3.86719 0.66407,-2.26562 0.66407,-4.96094 l 0,-22.65625 10.97656,0 0,32.8125 q 0,1.32813 0,2.8125 0.0391,1.44532 0.0781,2.77344 0.0781,1.28906 0.11719,2.34375 0.0781,1.01563 0.11719,1.52344 l -10.46875,0 q -0.0391,-0.46875 -0.15625,-1.48438 -0.0781,-1.05468 -0.15625,-2.30468 -0.0391,-1.25 -0.11719,-2.5 -0.0391,-1.25 -0.0391,-2.10938 l -0.19531,0 q -2.1875,4.80469 -5.58594,6.99219 -3.35938,2.1875 -8.00781,2.1875 -3.78907,0 -6.44532,-1.25 -2.65625,-1.25 -4.33593,-3.39844 -1.64063,-2.1875 -2.38282,-5.15625 -0.74218,-2.96875 -0.74218,-6.40625 l 0,-26.83594 10.97656,0 z" />
      </g>
      <g
         id="text4311"
         style="font-style:normal;font-variant:normal;font-weight:normal;font-stretch:normal;font-size:80px;line-height:125%;font-family:'Liberation Sans';-inkscape-font-specification:'Liberation Sans, Normal';text-align:start;letter-spacing:0px;word-spacing:0px;writing-mode:lr-tb;text-anchor:start;fill:#4c2005;fill-opacity:1;stroke:none;stroke-width:1px;stroke-linecap:butt;stroke-linejoin:miter;stroke-opacity:1">
        <path
           id="path3368"
           d="m 315.21283,438.83676 q 0,2.96875 -1.17188,5.3125 -1.13281,2.30469 -3.32031,3.90625 -2.1875,1.5625 -5.39062,2.42188 -3.16407,0.82031 -7.26563,0.82031 -3.67187,0 -6.64062,-0.58594 -2.92969,-0.54687 -5.15625,-1.79687 -2.22657,-1.25 -3.75,-3.28125 -1.48438,-2.07032 -2.1875,-5.03907 l 6.21093,-1.21093 q 0.89844,3.39843 3.71094,5 2.8125,1.5625 7.8125,1.5625 2.26563,0 4.14063,-0.3125 1.91406,-0.3125 3.28125,-1.05469 1.36718,-0.78125 2.10937,-2.03125 0.78125,-1.28906 0.78125,-3.16406 0,-1.91407 -0.89844,-3.125 -0.89843,-1.25 -2.5,-2.07032 -1.60156,-0.82031 -3.90625,-1.40625 -2.26562,-0.625 -5,-1.36718 -2.53906,-0.66407 -5.03906,-1.48438 -2.5,-0.82031 -4.53125,-2.14844 -1.99219,-1.36718 -3.24219,-3.35937 -1.25,-1.99219 -1.25,-5 0,-5.78125 4.10157,-8.78906 4.14062,-3.04688 12.03125,-3.04688 6.99218,0 11.09375,2.46094 4.14062,2.46094 5.23437,7.89062 l -6.32812,0.78125 q -0.35157,-1.64062 -1.28907,-2.73437 -0.9375,-1.13281 -2.26562,-1.79688 -1.32813,-0.70312 -3.00781,-0.97656 -1.64063,-0.3125 -3.4375,-0.3125 -4.76563,0 -7.03125,1.44531 -2.26563,1.44532 -2.26563,4.375 0,1.71875 0.82031,2.85157 0.85938,1.09375 2.34375,1.875 1.52344,0.74218 3.63282,1.32812 2.10937,0.54688 4.64843,1.17188 1.67969,0.42968 3.4375,0.9375 1.75782,0.46875 3.39844,1.17187 1.67969,0.66406 3.125,1.60156 1.48438,0.89844 2.57813,2.1875 1.09375,1.28907 1.71875,3.00782 0.66406,1.71875 0.66406,3.98437 z" />
        <path
           id="path3370"
           d="m 334.27533,451.2977 q -6.36719,0 -9.57031,-3.35938 -3.20313,-3.35937 -3.20313,-9.21875 0,-4.17968 1.5625,-6.83593 1.60156,-2.69532 4.14063,-4.21875 2.57812,-1.52344 5.85937,-2.10938 3.28125,-0.58594 6.67969,-0.66406 l 9.49219,-0.15625 0,-2.30469 q 0,-2.61719 -0.54688,-4.45312 -0.54687,-1.83594 -1.67969,-2.96875 -1.13281,-1.13282 -2.85156,-1.64063 -1.67969,-0.54687 -3.98437,-0.54687 -2.03125,0 -3.67188,0.3125 -1.64062,0.27343 -2.85156,1.05468 -1.21094,0.74219 -1.95313,2.07032 -0.74218,1.28906 -0.97656,3.28125 l -7.34375,-0.66407 q 0.39063,-2.5 1.48438,-4.57031 1.09375,-2.10937 3.08593,-3.63281 2.03125,-1.52344 5.03907,-2.34375 3.04687,-0.85938 7.34375,-0.85938 7.96875,0 11.99218,3.67188 4.02344,3.63281 4.02344,10.54687 l 0,18.20313 q 0,3.125 0.82031,4.72656 0.82032,1.5625 3.125,1.5625 0.58594,0 1.17188,-0.0781 0.58594,-0.0781 1.13281,-0.19532 l 0,4.375 q -1.32812,0.3125 -2.65625,0.46875 -1.28906,0.15625 -2.77344,0.15625 -1.99218,0 -3.4375,-0.50781 -1.40625,-0.54687 -2.30468,-1.60156 -0.89844,-1.09375 -1.36719,-2.65625 -0.46875,-1.60156 -0.58594,-3.71094 l -0.23437,0 q -1.13282,2.03125 -2.5,3.67188 -1.32813,1.64062 -3.125,2.8125 -1.79688,1.13281 -4.10157,1.75781 -2.26562,0.625 -5.23437,0.625 z m 1.60156,-5.27344 q 3.35938,0 5.85938,-1.21094 2.53906,-1.25 4.17968,-3.16406 1.67969,-1.91406 2.5,-4.17969 0.82032,-2.26562 0.82032,-4.33593 l 0,-3.47657 -7.69532,0.15625 q -2.57812,0.0391 -4.92187,0.39063 -2.30469,0.3125 -4.0625,1.28906 -1.75781,0.97656 -2.8125,2.73438 -1.01563,1.75781 -1.01563,4.60937 0,3.4375 1.83594,5.3125 1.875,1.875 5.3125,1.875 z" />
        <path
           id="path3372"
           d="m 394.86127,450.51645 0,-26.79688 q 0,-3.08593 -0.46875,-5.15625 -0.42969,-2.07031 -1.44532,-3.32031 -1.01562,-1.28906 -2.69531,-1.79687 -1.64062,-0.54688 -4.10156,-0.54688 -2.5,0 -4.53125,0.89844 -1.99219,0.85937 -3.4375,2.53906 -1.40625,1.64063 -2.1875,4.10156 -0.78125,2.42188 -0.78125,5.58594 l 0,24.49219 -7.03125,0 0,-33.24219 q 0,-1.32812 -0.0391,-2.77344 0,-1.48437 -0.0391,-2.77343 -0.0391,-1.32813 -0.0781,-2.26563 -0.0391,-0.9375 -0.0781,-1.21094 l 6.64063,0 q 0.0391,0.19532 0.0781,1.05469 0.0391,0.85938 0.0781,1.99219 0.0781,1.09375 0.11719,2.26562 0.0391,1.13282 0.0391,1.91407 l 0.11719,0 q 1.01562,-1.83594 2.22656,-3.32032 1.21094,-1.48437 2.8125,-2.5 1.60156,-1.05468 3.67187,-1.60156 2.07032,-0.58594 4.80469,-0.58594 3.51563,0 6.05469,0.85938 2.53906,0.85937 4.17969,2.65625 1.64062,1.79687 2.38281,4.64844 0.78125,2.8125 0.78125,6.71875 l 0,28.16406 -7.07031,0 z" />
      </g>
    </g>
    <g
       transform="translate(-364.53723,198.31597)"
       id="text4315"
       style="font-style:normal;font-weight:normal;font-size:40px;line-height:125%;font-family:sans-serif;letter-spacing:0px;word-spacing:0px;fill:#8aaf98;fill-opacity:1;stroke:none;stroke-width:1px;stroke-linecap:butt;stroke-linejoin:miter;stroke-opacity:1">
      <path
         id="path3375"
         style="font-style:normal;font-variant:normal;font-weight:normal;font-stretch:normal;font-size:35px;line-height:125%;font-family:'Liberation Sans';-inkscape-font-specification:'Liberation Sans, Normal';text-align:start;writing-mode:lr-tb;text-anchor:start;fill:#8aaf98;fill-opacity:1"
         d="m 162.2151,208.0748 q 0,1.58935 0.22217,2.92236 0.23926,1.33301 0.78613,2.30713 0.54688,0.95703 1.43555,1.48682 0.90576,0.52978 2.22168,0.52978 1.64063,0 2.73438,-0.88867 1.11084,-0.88867 1.36718,-2.73437 l 3.11035,0.20507 q -0.1538,1.14502 -0.6665,2.20459 -0.51269,1.05957 -1.40137,1.8628 -0.87158,0.80322 -2.13623,1.29882 -1.26465,0.47852 -2.92236,0.47852 -2.17041,0 -3.69141,-0.73486 -1.52099,-0.73487 -2.47802,-2.0166 -0.93995,-1.29883 -1.36719,-3.042 -0.42725,-1.76025 -0.42725,-3.81103 0,-1.8628 0.30762,-3.28125 0.30762,-1.43555 0.85449,-2.49512 0.56397,-1.07666 1.31592,-1.79443 0.75195,-0.73487 1.62354,-1.16211 0.88867,-0.44434 1.86279,-0.63233 0.97412,-0.20507 1.96533,-0.20507 1.55518,0 2.76855,0.42724 1.21338,0.42725 2.08497,1.1792 0.88867,0.73486 1.43554,1.74316 0.54688,1.00831 0.76905,2.17041 l -3.16163,0.23926 q -0.23925,-1.53808 -1.21337,-2.44384 -0.97413,-0.90577 -2.76856,-0.90577 -1.31592,0 -2.20459,0.44434 -0.87158,0.42725 -1.41846,1.31592 -0.54687,0.87158 -0.78613,2.20459 -0.22217,1.333 -0.22217,3.12744 z" />
      <path
         id="path3377"
         style="font-style:normal;font-variant:normal;font-weight:normal;font-stretch:normal;font-size:35px;line-height:125%;font-family:'Liberation Sans';-inkscape-font-specification:'Liberation Sans, Normal';text-align:start;writing-mode:lr-tb;text-anchor:start;fill:#8aaf98;fill-opacity:1"
         d="m 179.73219,208.80966 q 0,1.45264 0.29053,2.68311 0.30762,1.21338 0.92285,2.10205 0.63233,0.87158 1.60645,1.36719 0.97412,0.47851 2.34131,0.47851 1.99951,0 3.1958,-0.80322 1.21338,-0.80322 1.64062,-2.03369 l 2.7002,0.76904 q -0.29053,0.76904 -0.82032,1.55518 -0.51269,0.76904 -1.38427,1.40136 -0.87158,0.61524 -2.1875,1.02539 -1.29883,0.39307 -3.14453,0.39307 -4.10157,0 -6.25489,-2.44385 -2.13623,-2.44385 -2.13623,-7.26318 0,-2.59766 0.64942,-4.39209 0.64941,-1.81152 1.77734,-2.93945 1.12793,-1.12793 2.63184,-1.62354 1.5039,-0.51269 3.21289,-0.51269 2.32422,0 3.87939,0.75195 1.57227,0.75195 2.51221,2.08496 0.95703,1.31592 1.3501,3.11035 0.41015,1.79443 0.41015,3.8794 l 0,0.41015 -13.19336,0 z m 10.01465,-2.3584 q -0.25635,-2.92236 -1.48681,-4.25537 -1.23047,-1.3501 -3.5376,-1.3501 -0.76905,0 -1.62354,0.25635 -0.8374,0.23926 -1.55517,0.87158 -0.71778,0.63233 -1.21338,1.72608 -0.49561,1.07666 -0.56397,2.75146 l 9.98047,0 z" />
      <path
         id="path3379"
         style="font-style:normal;font-variant:normal;font-weight:normal;font-stretch:normal;font-size:35px;line-height:125%;font-family:'Liberation Sans';-inkscape-font-specification:'Liberation Sans, Normal';text-align:start;writing-mode:lr-tb;text-anchor:start;fill:#8aaf98;fill-opacity:1"
         d="m 208.59694,217.40585 0,-11.72363 q 0,-1.3501 -0.20508,-2.25586 -0.18799,-0.90576 -0.63232,-1.45264 -0.44434,-0.56396 -1.1792,-0.78613 -0.71778,-0.23926 -1.79444,-0.23926 -1.09375,0 -1.98242,0.39307 -0.87158,0.37598 -1.5039,1.11084 -0.61524,0.71777 -0.95704,1.79443 -0.34179,1.05957 -0.34179,2.44385 l 0,10.71533 -3.07617,0 0,-14.54345 q 0,-0.58106 -0.0171,-1.21338 0,-0.64942 -0.0171,-1.21338 -0.0171,-0.58106 -0.0342,-0.99121 -0.0171,-0.41016 -0.0342,-0.52979 l 2.90527,0 q 0.0171,0.0855 0.0342,0.46143 0.0171,0.37597 0.0342,0.87158 0.0342,0.47852 0.0513,0.99121 0.0171,0.49561 0.0171,0.8374 l 0.0513,0 q 0.44433,-0.80322 0.97412,-1.45263 0.52978,-0.64942 1.23047,-1.09375 0.70068,-0.46143 1.60644,-0.70069 0.90577,-0.25634 2.10205,-0.25634 1.53809,0 2.64893,0.37597 1.11084,0.37598 1.82861,1.16211 0.71778,0.78613 1.04248,2.03369 0.3418,1.23047 0.3418,2.93946 l 0,12.32177 -3.09326,0 z" />
      <path
         id="path3381"
         style="font-style:normal;font-variant:normal;font-weight:normal;font-stretch:normal;font-size:35px;line-height:125%;font-family:'Liberation Sans';-inkscape-font-specification:'Liberation Sans, Normal';text-align:start;writing-mode:lr-tb;text-anchor:start;fill:#8aaf98;fill-opacity:1"
         d="m 223.44801,217.26913 q -0.70068,0.18799 -1.43554,0.29053 -0.71778,0.11963 -1.67481,0.11963 -3.6914,0 -3.6914,-4.18701 l 0,-12.33887 -2.13623,0 0,-2.23877 2.25585,0 0.90577,-4.13574 2.05078,0 0,4.13574 3.41797,0 0,2.23877 -3.41797,0 0,11.67237 q 0,1.333 0.42724,1.87988 0.44434,0.52978 1.521,0.52978 0.44434,0 0.85449,-0.0684 0.42725,-0.0684 0.92285,-0.17089 l 0,2.27294 z" />
      <path
         id="path3383"
         style="font-style:normal;font-variant:normal;font-weight:normal;font-stretch:normal;font-size:35px;line-height:125%;font-family:'Liberation Sans';-inkscape-font-specification:'Liberation Sans, Normal';text-align:start;writing-mode:lr-tb;text-anchor:start;fill:#8aaf98;fill-opacity:1"
         d="m 226.11403,217.40585 0,-14.18457 q 0,-0.58105 -0.0171,-1.1792 0,-0.61523 -0.0171,-1.1792 -0.0171,-0.56396 -0.0342,-1.05957 -0.0171,-0.4956 -0.0342,-0.88867 l 2.90527,0 q 0.0171,0.39307 0.0342,0.90576 0.0342,0.49561 0.0513,1.02539 0.0342,0.52979 0.0342,1.0254 0.0171,0.47851 0.0171,0.82031 l 0.0684,0 q 0.32471,-1.05957 0.6836,-1.82862 0.37597,-0.78613 0.87158,-1.28173 0.4956,-0.5127 1.1792,-0.75196 0.68359,-0.25634 1.65771,-0.25634 0.37598,0 0.71777,0.0684 0.3418,0.0513 0.52979,0.10254 l 0,2.81983 q -0.30762,-0.0855 -0.71777,-0.11963 -0.41016,-0.0513 -0.92286,-0.0513 -1.05957,0 -1.81152,0.47852 -0.73486,0.47851 -1.21338,1.333 -0.46142,0.83741 -0.68359,2.0166 -0.22217,1.16211 -0.22217,2.54639 l 0,9.63867 -3.07617,0 z" />
      <path
         id="path3385"
         style="font-style:normal;font-variant:normal;font-weight:normal;font-stretch:normal;font-size:35px;line-height:125%;font-family:'Liberation Sans';-inkscape-font-specification:'Liberation Sans, Normal';text-align:start;writing-mode:lr-tb;text-anchor:start;fill:#8aaf98;fill-opacity:1"
         d="m 253.37233,208.14316 q 0,4.85351 -2.13623,7.229 -2.13623,2.37549 -6.20361,2.37549 -1.93116,0 -3.45215,-0.58105 -1.521,-0.58106 -2.58057,-1.77735 -1.04248,-1.19629 -1.60644,-2.99072 -0.54688,-1.81152 -0.54688,-4.25537 0,-9.57031 8.28858,-9.57031 2.15332,0 3.70849,0.59814 1.57227,0.59814 2.56348,1.79443 1.0083,1.19629 1.48681,2.99073 0.47852,1.79443 0.47852,4.18701 z m -3.22998,0 q 0,-2.15332 -0.3418,-3.55469 -0.3247,-1.40137 -0.97412,-2.23877 -0.63232,-0.8374 -1.55517,-1.16211 -0.92286,-0.3418 -2.08497,-0.3418 -1.17919,0 -2.13623,0.35889 -0.93994,0.3418 -1.60644,1.19629 -0.66651,0.8374 -1.02539,2.23877 -0.3418,1.40137 -0.3418,3.50342 0,2.15332 0.37598,3.57178 0.37597,1.40136 1.02539,2.23876 0.6665,0.83741 1.55517,1.1792 0.90577,0.3418 1.96534,0.3418 1.1792,0 2.13623,-0.32471 0.95703,-0.34179 1.62353,-1.1792 0.66651,-0.8374 1.02539,-2.25585 0.35889,-1.41846 0.35889,-3.57178 z" />
      <path
         id="path3387"
         style="font-style:normal;font-variant:normal;font-weight:normal;font-stretch:normal;font-size:35px;line-height:125%;font-family:'Liberation Sans';-inkscape-font-specification:'Liberation Sans, Normal';text-align:start;writing-mode:lr-tb;text-anchor:start;fill:#8aaf98;fill-opacity:1"
         d="m 278.59694,214.43222 q -0.85449,1.77734 -2.27295,2.54639 -1.40137,0.76904 -3.48633,0.76904 -3.50342,0 -5.16113,-2.3584 -1.64063,-2.3584 -1.64063,-7.14355 0,-9.67285 6.80176,-9.67285 2.10205,0 3.50342,0.76904 1.40137,0.76904 2.25586,2.44385 l 0.0342,0 q 0,-0.1709 -0.0171,-0.52979 0,-0.37598 -0.0171,-0.76904 0,-0.41016 0,-0.76905 0,-0.35888 0,-0.51269 l 0,-7.16064 3.07617,0 0,21.55029 q 0,0.6665 0,1.28174 0.0171,0.61523 0.0342,1.12793 0.0171,0.51269 0.0342,0.88867 0.0171,0.35888 0.0342,0.51269 l -2.93945,0 q -0.0342,-0.1709 -0.0684,-0.47851 -0.0171,-0.32471 -0.0513,-0.73487 -0.0171,-0.41015 -0.0342,-0.85449 -0.0171,-0.46142 -0.0171,-0.90576 l -0.0684,0 z m -9.33106,-6.28906 q 0,1.91406 0.23926,3.28125 0.23926,1.36719 0.76905,2.25586 0.52978,0.87158 1.35009,1.28174 0.82032,0.41015 1.99951,0.41015 1.21338,0 2.13624,-0.39306 0.93994,-0.39307 1.55517,-1.26465 0.63233,-0.88867 0.95703,-2.30713 0.32471,-1.41846 0.32471,-3.46924 0,-1.96533 -0.32471,-3.31543 -0.3247,-1.36719 -0.95703,-2.20459 -0.63232,-0.8374 -1.55517,-1.19629 -0.90577,-0.37598 -2.10206,-0.37598 -1.12793,0 -1.94824,0.39307 -0.82031,0.39307 -1.36719,1.26465 -0.54687,0.87158 -0.82031,2.27295 -0.25635,1.38428 -0.25635,3.3667 z" />
      <path
         id="path3389"
         style="font-style:normal;font-variant:normal;font-weight:normal;font-stretch:normal;font-size:35px;line-height:125%;font-family:'Liberation Sans';-inkscape-font-specification:'Liberation Sans, Normal';text-align:start;writing-mode:lr-tb;text-anchor:start;fill:#8aaf98;fill-opacity:1"
         d="m 288.7654,208.80966 q 0,1.45264 0.29052,2.68311 0.30762,1.21338 0.92286,2.10205 0.63232,0.87158 1.60644,1.36719 0.97412,0.47851 2.34131,0.47851 1.99951,0 3.1958,-0.80322 1.21338,-0.80322 1.64062,-2.03369 l 2.7002,0.76904 q -0.29053,0.76904 -0.82031,1.55518 -0.5127,0.76904 -1.38428,1.40136 -0.87158,0.61524 -2.1875,1.02539 -1.29883,0.39307 -3.14453,0.39307 -4.10156,0 -6.25488,-2.44385 -2.13623,-2.44385 -2.13623,-7.26318 0,-2.59766 0.64941,-4.39209 0.64941,-1.81152 1.77734,-2.93945 1.12793,-1.12793 2.63184,-1.62354 1.50391,-0.51269 3.21289,-0.51269 2.32422,0 3.87939,0.75195 1.57227,0.75195 2.51221,2.08496 0.95703,1.31592 1.3501,3.11035 0.41016,1.79443 0.41016,3.8794 l 0,0.41015 -13.19336,0 z m 10.01464,-2.3584 q -0.25634,-2.92236 -1.48681,-4.25537 -1.23047,-1.3501 -3.5376,-1.3501 -0.76904,0 -1.62353,0.25635 -0.83741,0.23926 -1.55518,0.87158 -0.71777,0.63233 -1.21338,1.72608 -0.4956,1.07666 -0.56396,2.75146 l 9.98046,0 z" />
      <path
         id="path3391"
         style="font-style:normal;font-variant:normal;font-weight:normal;font-stretch:normal;font-size:35px;line-height:125%;font-family:'Liberation Sans';-inkscape-font-specification:'Liberation Sans, Normal';text-align:start;writing-mode:lr-tb;text-anchor:start;fill:#8aaf98;fill-opacity:1"
         d="m 327.33717,217.40585 0,-11.72363 q 0,-1.3501 -0.20507,-2.25586 -0.18799,-0.90576 -0.63233,-1.45264 -0.44433,-0.56396 -1.1792,-0.78613 -0.71777,-0.23926 -1.79443,-0.23926 -1.09375,0 -1.98242,0.39307 -0.87159,0.37598 -1.50391,1.11084 -0.61523,0.71777 -0.95703,1.79443 -0.3418,1.05957 -0.3418,2.44385 l 0,10.71533 -3.07617,0 0,-14.54345 q 0,-0.58106 -0.0171,-1.21338 0,-0.64942 -0.0171,-1.21338 -0.0171,-0.58106 -0.0342,-0.99121 -0.0171,-0.41016 -0.0342,-0.52979 l 2.90527,0 q 0.0171,0.0855 0.0342,0.46143 0.0171,0.37597 0.0342,0.87158 0.0342,0.47852 0.0513,0.99121 0.0171,0.49561 0.0171,0.8374 l 0.0513,0 q 0.44434,-0.80322 0.97412,-1.45263 0.52979,-0.64942 1.23047,-1.09375 0.70069,-0.46143 1.60645,-0.70069 0.90576,-0.25634 2.10205,-0.25634 1.53808,0 2.64892,0.37597 1.11084,0.37598 1.82862,1.16211 0.71777,0.78613 1.04248,2.03369 0.3418,1.23047 0.3418,2.93946 l 0,12.32177 -3.09327,0 z" />
      <path
         id="path3393"
         style="font-style:normal;font-variant:normal;font-weight:normal;font-stretch:normal;font-size:35px;line-height:125%;font-family:'Liberation Sans';-inkscape-font-specification:'Liberation Sans, Normal';text-align:start;writing-mode:lr-tb;text-anchor:start;fill:#8aaf98;fill-opacity:1"
         d="m 338.08669,198.91464 0,11.72364 q 0,1.35009 0.18798,2.25585 0.20508,0.90577 0.64942,1.46973 0.44433,0.54688 1.16211,0.78613 0.73486,0.22217 1.81152,0.22217 1.09375,0 1.96533,-0.37597 0.88867,-0.39307 1.50391,-1.11084 0.63232,-0.73487 0.97412,-1.79444 0.3418,-1.07666 0.3418,-2.46094 l 0,-10.71533 3.07617,0 0,14.54346 q 0,0.58105 0,1.23047 0.0171,0.63232 0.0342,1.21338 0.0171,0.56396 0.0342,0.97412 0.0171,0.41015 0.0342,0.52978 l -2.90528,0 q -0.0171,-0.0854 -0.0342,-0.46142 -0.0171,-0.37598 -0.0513,-0.85449 -0.0171,-0.49561 -0.0342,-0.99122 -0.0171,-0.51269 -0.0171,-0.85449 l -0.0513,0 q -0.44434,0.80322 -0.97413,1.45264 -0.52978,0.64941 -1.23046,1.11084 -0.70069,0.44433 -1.60645,0.68359 -0.90576,0.25635 -2.10205,0.25635 -1.53809,0 -2.64893,-0.37598 -1.11084,-0.37597 -1.82861,-1.16211 -0.71777,-0.78613 -1.05957,-2.0166 -0.32471,-1.23047 -0.32471,-2.95654 l 0,-12.32178 3.09327,0 z" />
      <path
         id="path3395"
         style="font-style:normal;font-variant:normal;font-weight:normal;font-stretch:normal;font-size:35px;line-height:125%;font-family:'Liberation Sans';-inkscape-font-specification:'Liberation Sans, Normal';text-align:start;writing-mode:lr-tb;text-anchor:start;fill:#8aaf98;fill-opacity:1"
         d="m 361.67067,217.26913 q -0.70068,0.18799 -1.43555,0.29053 -0.71777,0.11963 -1.6748,0.11963 -3.69141,0 -3.69141,-4.18701 l 0,-12.33887 -2.13623,0 0,-2.23877 2.25586,0 0.90576,-4.13574 2.05078,0 0,4.13574 3.41797,0 0,2.23877 -3.41797,0 0,11.67237 q 0,1.333 0.42725,1.87988 0.44434,0.52978 1.521,0.52978 0.44433,0 0.85449,-0.0684 0.42724,-0.0684 0.92285,-0.17089 l 0,2.27294 z" />
      <path
         id="path3397"
         style="font-style:normal;font-variant:normal;font-weight:normal;font-stretch:normal;font-size:35px;line-height:125%;font-family:'Liberation Sans';-inkscape-font-specification:'Liberation Sans, Normal';text-align:start;writing-mode:lr-tb;text-anchor:start;fill:#8aaf98;fill-opacity:1"
         d="m 364.33669,217.40585 0,-14.18457 q 0,-0.58105 -0.0171,-1.1792 0,-0.61523 -0.0171,-1.1792 -0.0171,-0.56396 -0.0342,-1.05957 -0.0171,-0.4956 -0.0342,-0.88867 l 2.90527,0 q 0.0171,0.39307 0.0342,0.90576 0.0342,0.49561 0.0513,1.02539 0.0342,0.52979 0.0342,1.0254 0.0171,0.47851 0.0171,0.82031 l 0.0684,0 q 0.3247,-1.05957 0.68359,-1.82862 0.37598,-0.78613 0.87158,-1.28173 0.49561,-0.5127 1.1792,-0.75196 0.6836,-0.25634 1.65772,-0.25634 0.37597,0 0.71777,0.0684 0.3418,0.0513 0.52979,0.10254 l 0,2.81983 q -0.30762,-0.0855 -0.71778,-0.11963 -0.41015,-0.0513 -0.92285,-0.0513 -1.05957,0 -1.81152,0.47852 -0.73487,0.47851 -1.21338,1.333 -0.46143,0.83741 -0.68359,2.0166 -0.22217,1.16211 -0.22217,2.54639 l 0,9.63867 -3.07617,0 z" />
      <path
         id="path3399"
         style="font-style:normal;font-variant:normal;font-weight:normal;font-stretch:normal;font-size:35px;line-height:125%;font-family:'Liberation Sans';-inkscape-font-specification:'Liberation Sans, Normal';text-align:start;writing-mode:lr-tb;text-anchor:start;fill:#8aaf98;fill-opacity:1"
         d="m 375.94069,194.98398 0,-2.93945 3.07617,0 0,2.93945 -3.07617,0 z m 0,22.42187 0,-18.49121 3.07617,0 0,18.49121 -3.07617,0 z" />
      <path
         id="path3401"
         style="font-style:normal;font-variant:normal;font-weight:normal;font-stretch:normal;font-size:35px;line-height:125%;font-family:'Liberation Sans';-inkscape-font-specification:'Liberation Sans, Normal';text-align:start;writing-mode:lr-tb;text-anchor:start;fill:#8aaf98;fill-opacity:1"
         d="m 386.09206,208.0748 q 0,1.58935 0.22216,2.92236 0.23926,1.33301 0.78614,2.30713 0.54687,0.95703 1.43554,1.48682 0.90577,0.52978 2.22168,0.52978 1.64063,0 2.73438,-0.88867 1.11084,-0.88867 1.36719,-2.73437 l 3.11035,0.20507 q -0.15381,1.14502 -0.66651,2.20459 -0.51269,1.05957 -1.40136,1.8628 -0.87159,0.80322 -2.13623,1.29882 -1.26465,0.47852 -2.92237,0.47852 -2.17041,0 -3.6914,-0.73486 -1.521,-0.73487 -2.47803,-2.0166 -0.93994,-1.29883 -1.36719,-3.042 -0.42724,-1.76025 -0.42724,-3.81103 0,-1.8628 0.30761,-3.28125 0.30762,-1.43555 0.8545,-2.49512 0.56396,-1.07666 1.31591,-1.79443 0.75196,-0.73487 1.62354,-1.16211 0.88867,-0.44434 1.86279,-0.63233 0.97412,-0.20507 1.96533,-0.20507 1.55518,0 2.76856,0.42724 1.21338,0.42725 2.08496,1.1792 0.88867,0.73486 1.43555,1.74316 0.54687,1.00831 0.76904,2.17041 l -3.16162,0.23926 q -0.23926,-1.53808 -1.21338,-2.44384 -0.97412,-0.90577 -2.76856,-0.90577 -1.31591,0 -2.20459,0.44434 -0.87158,0.42725 -1.41845,1.31592 -0.54688,0.87158 -0.78614,2.20459 -0.22216,1.333 -0.22216,3.12744 z" />
      <path
         id="path3403"
         style="font-style:normal;font-variant:normal;font-weight:normal;font-stretch:normal;font-size:35px;line-height:125%;font-family:'Liberation Sans';-inkscape-font-specification:'Liberation Sans, Normal';text-align:start;writing-mode:lr-tb;text-anchor:start;fill:#8aaf98;fill-opacity:1"
         d="m 401.23366,194.98398 0,-2.93945 3.07617,0 0,2.93945 -3.07617,0 z m 0,22.42187 0,-18.49121 3.07617,0 0,18.49121 -3.07617,0 z" />
      <path
         id="path3405"
         style="font-style:normal;font-variant:normal;font-weight:normal;font-stretch:normal;font-size:35px;line-height:125%;font-family:'Liberation Sans';-inkscape-font-specification:'Liberation Sans, Normal';text-align:start;writing-mode:lr-tb;text-anchor:start;fill:#8aaf98;fill-opacity:1"
         d="m 424.68092,208.14316 q 0,4.85351 -2.13623,7.229 -2.13623,2.37549 -6.20361,2.37549 -1.93115,0 -3.45215,-0.58105 -1.52099,-0.58106 -2.58057,-1.77735 -1.04248,-1.19629 -1.60644,-2.99072 -0.54688,-1.81152 -0.54688,-4.25537 0,-9.57031 8.28858,-9.57031 2.15332,0 3.70849,0.59814 1.57227,0.59814 2.56348,1.79443 1.0083,1.19629 1.48682,2.99073 0.47851,1.79443 0.47851,4.18701 z m -3.22998,0 q 0,-2.15332 -0.34179,-3.55469 -0.32471,-1.40137 -0.97412,-2.23877 -0.63233,-0.8374 -1.55518,-1.16211 -0.92285,-0.3418 -2.08496,-0.3418 -1.1792,0 -2.13623,0.35889 -0.93994,0.3418 -1.60645,1.19629 -0.6665,0.8374 -1.02539,2.23877 -0.34179,1.40137 -0.34179,3.50342 0,2.15332 0.37597,3.57178 0.37598,1.40136 1.02539,2.23876 0.66651,0.83741 1.55518,1.1792 0.90576,0.3418 1.96533,0.3418 1.1792,0 2.13623,-0.32471 0.95703,-0.34179 1.62354,-1.1792 0.6665,-0.8374 1.02539,-2.25585 0.35888,-1.41846 0.35888,-3.57178 z m -7.3999,-11.26221 0,-0.3418 3.7085,-4.90478 3.53759,0 0,0.4956 -5.63964,4.75098 -1.60645,0 z" />
      <path
         id="path3407"
         style="font-style:normal;font-variant:normal;font-weight:normal;font-stretch:normal;font-size:35px;line-height:125%;font-family:'Liberation Sans';-inkscape-font-specification:'Liberation Sans, Normal';text-align:start;writing-mode:lr-tb;text-anchor:start;fill:#8aaf98;fill-opacity:1"
         d="m 440.26686,217.40585 0,-11.72363 q 0,-1.3501 -0.20508,-2.25586 -0.18799,-0.90576 -0.63232,-1.45264 -0.44434,-0.56396 -1.1792,-0.78613 -0.71777,-0.23926 -1.79443,-0.23926 -1.09375,0 -1.98243,0.39307 -0.87158,0.37598 -1.5039,1.11084 -0.61524,0.71777 -0.95703,1.79443 -0.3418,1.05957 -0.3418,2.44385 l 0,10.71533 -3.07617,0 0,-14.54345 q 0,-0.58106 -0.0171,-1.21338 0,-0.64942 -0.0171,-1.21338 -0.0171,-0.58106 -0.0342,-0.99121 -0.0171,-0.41016 -0.0342,-0.52979 l 2.90527,0 q 0.0171,0.0855 0.0342,0.46143 0.0171,0.37597 0.0342,0.87158 0.0342,0.47852 0.0513,0.99121 0.0171,0.49561 0.0171,0.8374 l 0.0513,0 q 0.44434,-0.80322 0.97412,-1.45263 0.52979,-0.64942 1.23047,-1.09375 0.70068,-0.46143 1.60645,-0.70069 0.90576,-0.25634 2.10205,-0.25634 1.53808,0 2.64892,0.37597 1.11084,0.37598 1.82862,1.16211 0.71777,0.78613 1.04248,2.03369 0.34179,1.23047 0.34179,2.93946 l 0,12.32177 -3.09326,0 z" />
    </g>
  </g>
</svg>
